<?xml version="1.0" standalone="no"?>
<!DOCTYPE svg PUBLIC "-//W3C//DTD SVG 20010904//EN"
 "http://www.w3.org/TR/2001/REC-SVG-20010904/DTD/svg10.dtd">
<svg version="1.0" xmlns="http://www.w3.org/2000/svg"
 width="481.000000pt" height="481.000000pt" viewBox="0 0 481.000000 481.000000"
 preserveAspectRatio="xMidYMid meet">
<metadata>
Created by potrace 1.14, written by Peter Selinger 2001-2017
</metadata>
<g transform="translate(0.000000,481.000000) scale(0.100000,-0.100000)"
fill="#000000" stroke="none">
<path d="M2178 4795 c-2 -2 -32 -6 -68 -10 -171 -18 -402 -77 -577 -146 -103
-41 -240 -107 -248 -119 -3 -6 -10 -8 -14 -5 -4 2 -23 -7 -41 -20 -19 -14 -38
-25 -42 -25 -9 0 -97 -57 -138 -90 -14 -11 -29 -20 -33 -20 -8 0 -12 -3 -60
-42 -15 -13 -41 -34 -59 -48 -18 -14 -45 -37 -60 -52 -15 -14 -28 -24 -28 -22
0 9 -195 -192 -235 -241 -22 -28 -44 -55 -50 -61 -5 -7 -19 -24 -30 -40 -11
-15 -28 -36 -37 -46 -10 -10 -18 -20 -18 -23 -1 -15 -13 -34 -19 -30 -4 2 -14
-11 -21 -30 -8 -19 -17 -35 -22 -35 -4 0 -8 -4 -8 -9 0 -5 -22 -46 -50 -90
-27 -45 -47 -81 -45 -81 3 0 -11 -29 -30 -64 -19 -35 -31 -66 -28 -70 4 -3 0
-6 -7 -6 -7 0 -10 -3 -7 -6 4 -4 0 -19 -7 -33 -12 -22 -21 -43 -31 -71 -1 -3
-5 -12 -8 -20 -10 -23 -59 -173 -62 -190 -2 -8 -4 -15 -5 -15 -1 0 -3 -7 -5
-16 -1 -10 -11 -50 -20 -90 -10 -41 -19 -85 -20 -99 -2 -14 -4 -25 -5 -25 -1
0 -3 -16 -5 -35 -2 -19 -7 -51 -10 -70 -28 -177 -23 -486 11 -680 3 -14 7 -43
10 -64 3 -22 8 -44 10 -48 3 -5 7 -21 10 -36 4 -28 17 -75 41 -155 8 -26 16
-53 17 -60 2 -14 36 -104 73 -192 28 -66 95 -202 124 -250 10 -16 22 -37 26
-45 14 -32 124 -189 184 -265 73 -92 258 -281 339 -346 30 -24 61 -50 68 -56
18 -17 227 -156 277 -184 245 -136 520 -235 780 -279 256 -43 560 -45 780 -4
10 2 37 6 60 10 126 18 352 86 503 150 586 251 1054 727 1285 1309 34 87 49
124 52 135 1 3 11 37 23 75 20 65 49 183 57 230 2 11 9 47 14 80 34 193 36
533 5 735 -21 141 -69 325 -121 469 -59 166 -183 410 -255 502 -15 20 -28 42
-28 48 0 6 -4 11 -8 11 -5 0 -14 10 -19 23 -16 33 -132 170 -230 270 -270 278
-594 478 -968 600 -186 61 -267 78 -490 106 -63 8 -469 13 -477 6z"/>
</g>
</svg>
